<svg xmlns="http://www.w3.org/2000/svg" xmlns:xlink="http://www.w3.org/1999/xlink" version="1.1" width="107.22487795352936" height="29.20927584171295" viewBox="-0.10683828592300415 0.320661723613739 107.22487795352936 29.20927584171295">
  <!-- Exported by Scratch - http://scratch.mit.edu/ -->
  <path id="ID0.03096994338557124" fill="#FF5695" stroke="none" stroke-linecap="round" d="M 70.4614 25.0919 L 78.333 4.2299 L 62.9769 4.445 L 70.4614 25.0919 Z " stroke-width="0.860288143157959"/>
  <path id="ID0.03096994338557124" fill="#FF5695" stroke="none" stroke-linecap="round" d="M 28.9045 21.7166 L 35.5532 4.0956 L 22.5827 4.2772 L 28.9045 21.7166 Z " stroke-width="0.7266398668289185"/>
  <path id="ID0.14459503954276443" fill="#000000" stroke="none" stroke-linecap="round" d="M 0.4124 8.2362 L 4.0356 6.8721 L 7.4456 12.4987 L 10.8557 7.9378 L 13.8395 11.1347 L 16.4823 9.6428 L 21.5121 16.7613 L 25.9878 7.9378 L 27.9059 8.2362 L 27.9059 0.9898 L 0.4124 0.9898 L 0.4124 8.2362 Z " stroke-width="0.8525108695030212"/>
  <path id="ID0.03096994338557124" fill="#FF5695" stroke="none" stroke-linecap="round" d="M 45.2018 29.0107 L 54.7038 3.8276 L 36.167 4.0873 L 45.2018 29.0107 Z " stroke-width="1.038476586341858"/>
  <path id="ID0.14459503954276443" fill="#000000" stroke="none" stroke-linecap="round" d="M 26.1816 8.4456 L 28.2518 7.6087 L 31.6435 13.7753 L 35.1673 8.4897 L 37.9422 12.4539 L 41.7743 5.4063 L 44.5493 8.4016 L 47.8529 5.8468 L 51.3766 9.8992 L 54.5921 8.4456 L 54.5921 0.9576 L 26.1816 0.9576 L 26.1816 8.4456 Z " stroke-width="0.8809447288513184"/>
  <path id="ID0.14459503954276443" fill="#000000" stroke="none" stroke-linecap="round" d="M 52.0099 8.4879 L 54.1056 7.6407 L 56.9147 10.3161 L 60.2143 8.0866 L 66.0109 9.9594 L 68.5079 9.0676 L 72.3872 15.3993 L 76.7124 7.7299 L 80.77 8.4879 L 80.77 0.9078 L 52.0099 0.9078 L 52.0099 8.4879 Z " stroke-width="0.8917852640151978"/>
  <path id="ID0.14459503954276443" fill="#000000" stroke="none" stroke-linecap="round" d="M 78.8545 8.1523 L 81.1343 7.292 L 85.5218 16.153 L 90.3394 8.5825 L 93.4794 13.0129 L 96.4905 9.7008 L 99.6305 11.2924 L 102.2974 7.206 L 106.5988 8.1523 L 106.5988 0.8399 L 78.8545 0.8399 L 78.8545 8.1523 Z " stroke-width="0.860288143157959"/>
</svg>