<svg xmlns="http://www.w3.org/2000/svg" xmlns:xlink="http://www.w3.org/1999/xlink" version="1.1" width="81.10759735107422" height="24.88409996032715" viewBox="-0.28759998083114624 0.05810004472732544 81.10759735107422 24.88409996032715">
  <!-- Exported by Scratch - http://scratch.mit.edu/ -->
  <path id="ID0.03096994338557124" fill="#FF5695" stroke="none" stroke-linecap="round" d="M 17.4544 3.1834 L 24.1032 20.8044 L 11.1327 20.6227 L 17.4544 3.1834 Z " stroke-width="0.7266398072242737"/>
  <path id="ID0.03096994338557124" fill="#FF5695" stroke="none" stroke-linecap="round" d="M 58.9614 0.5581 L 66.833 21.4201 L 51.4769 21.205 L 58.9614 0.5581 Z " stroke-width="0.860288143157959"/>
  <path id="ID0.14459503954276443" fill="#000000" stroke="none" stroke-linecap="round" d="M 0.2124 17.1638 L 3.8356 18.5279 L 7.2456 12.9013 L 10.6557 17.4622 L 13.6395 14.2653 L 16.2823 15.7572 L 21.3121 8.6387 L 25.7878 17.4622 L 27.7059 17.1638 L 27.7059 24.4102 L 0.2124 24.4102 L 0.2124 17.1638 Z " stroke-width="0.8525108695030212"/>
  <path id="ID0.14459503954276443" fill="#000000" stroke="none" stroke-linecap="round" d="M 25.8316 16.9044 L 27.9018 17.7413 L 31.2494 15.4508 L 35.478 19.4591 L 38.4732 17.477 L 41.4243 19.9437 L 44.1993 16.9484 L 47.5029 19.5032 L 51.0266 15.4508 L 54.2421 16.9044 L 54.2421 24.3924 L 25.8316 24.3924 L 25.8316 16.9044 Z " stroke-width="0.8809447288513184"/>
  <path id="ID0.14459503954276443" fill="#000000" stroke="none" stroke-linecap="round" d="M 51.5599 16.8621 L 53.6556 17.7093 L 56.4647 15.0339 L 59.7643 17.2634 L 65.5609 15.3906 L 68.0579 16.2824 L 71.9372 9.9507 L 76.2623 17.6201 L 80.32 16.8621 L 80.32 24.4422 L 51.5599 24.4422 L 51.5599 16.8621 Z " stroke-width="0.891785204410553"/>
</svg>