<svg xmlns="http://www.w3.org/2000/svg" xmlns:xlink="http://www.w3.org/1999/xlink" version="1.1" width="105.7562026977539" height="14.292999267578125" viewBox="0.12219995260238647 0.09920001029968262 105.7562026977539 14.292999267578125">
  <!-- Exported by Scratch - http://scratch.mit.edu/ -->
  <path id="ID0.14459503954276443" fill="#000000" stroke="none" stroke-linecap="round" d="M 0.6222 6.0391 L 0.6222 0.7776 L 7.3245 0.733 L 7.3245 6.1729 L 13.3468 6.1729 L 13.3468 0.5992 L 19.9519 0.5992 L 19.9519 6.0837 L 26.8485 6.0837 L 26.8485 13.8422 L 0.6222 13.8422 L 0.6222 6.0391 Z " stroke-width="0.9324129750270744"/>
  <path id="ID0.14459503954276443" fill="#000000" stroke="none" stroke-linecap="round" d="M 26.7722 6.0391 L 26.7722 0.7776 L 33.4745 0.733 L 33.4745 6.1729 L 39.4968 6.1729 L 39.4968 0.5992 L 46.1019 0.5992 L 46.1019 6.0837 L 52.9985 6.0837 L 52.9985 13.8422 L 26.7722 13.8422 L 26.7722 6.0391 Z " stroke-width="0.9324129750270744"/>
  <path id="ID0.14459503954276443" fill="#000000" stroke="none" stroke-linecap="round" d="M 52.8522 6.0391 L 52.8522 0.7776 L 59.58 0.733 L 59.58 6.1729 L 65.6253 6.1729 L 65.6253 0.5992 L 72.2556 0.5992 L 72.2556 6.0837 L 79.1784 6.0837 L 79.1784 13.8422 L 52.8522 13.8422 L 52.8522 6.0391 Z " stroke-width="0.9343420871239523"/>
  <path id="ID0.14459503954276443" fill="#000000" stroke="none" stroke-linecap="round" d="M 79.0522 6.0891 L 79.0522 0.8276 L 85.78 0.783 L 85.78 6.2229 L 91.8253 6.2229 L 91.8253 0.6492 L 98.4556 0.6492 L 98.4556 6.1337 L 105.3784 6.1337 L 105.3784 13.8922 L 79.0522 13.8922 L 79.0522 6.0891 Z " stroke-width="0.9343420871239523"/>
</svg>