<svg version="1.1" xmlns="http://www.w3.org/2000/svg" xmlns:xlink="http://www.w3.org/1999/xlink" width="644" height="563" viewBox="0,0,644,563"><defs><linearGradient x1="66.38274" y1="25.2" x2="40.8" y2="50.78274" gradientUnits="userSpaceOnUse" id="color-1"><stop offset="0" stop-color="#32c5ff"/><stop offset="0.51258" stop-color="#b620e0"/><stop offset="1" stop-color="#f7b500"/></linearGradient></defs><g transform="translate(3.8,0.5331)"><g data-paper-data="{&quot;isPaintingLayer&quot;:true}" stroke-linecap="butt" stroke-linejoin="miter" stroke-miterlimit="10" stroke-dasharray="" stroke-dashoffset="0" style="mix-blend-mode: normal"><path d="M-2.8,561.4669v-561h642v561z" fill="#171717" fill-rule="nonzero" stroke="#000000" stroke-width="2"/><path d="M30.9,57.4v-42h82v42z" fill="#ffffff" fill-rule="nonzero" stroke="#000000" stroke-width="2"/><g><path d="M40.8,50.78274v-25.58274h25.58274v25.58274z" fill="url(#color-1)" fill-rule="evenodd" stroke="#000000" stroke-width="3"/><path d="M46.95434,39.80147h13.51541c0.79975,0 1.44808,0.64833 1.44808,1.44808v3.13751c0,0.79975 -0.64833,1.44808 -1.44808,1.44808h-13.51541c-0.79975,0 -1.44808,-0.64833 -1.44808,-1.44808v-3.13751c0,-0.79975 0.64833,-1.44808 1.44808,-1.44808zM46.95434,30.14761h3.13751c0.79975,0 1.44808,0.64833 1.44808,1.44808v3.13751c0,0.79975 -0.64833,1.44808 -1.44808,1.44808h-3.13751c-0.79975,0 -1.44808,-0.64833 -1.44808,-1.44808v-3.13751c0,-0.79975 0.64833,-1.44808 1.44808,-1.44808zM57.33224,30.14761h3.13751c0.79975,0 1.44808,0.64833 1.44808,1.44808v3.13751c0,0.79975 -0.64833,1.44808 -1.44808,1.44808h-3.13751c-0.79975,0 -1.44808,-0.64833 -1.44808,-1.44808v-3.13751c0,-0.79975 0.64833,-1.44808 1.44808,-1.44808z" fill="#fdcdcd" fill-rule="evenodd" stroke="none" stroke-width="1"/><path d="M72.2354,38.89642v4.52525h-2.08161v-10.83043h7.43649v10.83043h-1.94586v-4.52525zM72.2354,37.13157h3.40902v-2.68498h-3.40902z" fill="#000000" fill-rule="nonzero" stroke="none" stroke-width="1"/><path d="M86.53518,37.13157v6.2901h-7.43649v-10.83043h7.43649v1.85535h-5.35488v7.11972h3.40902v-2.6699h-2.15704v-1.76485z" fill="#000000" fill-rule="nonzero" stroke="none" stroke-width="1"/><path d="M88.0436,32.59124h6.65212l0.78438,0.9503v8.92982l-0.76929,0.9503h-6.6672zM90.12521,34.44659v7.11972h3.40902v-7.11972z" fill="#000000" fill-rule="nonzero" stroke="none" stroke-width="1"/><path d="M104.425,32.59124l-2.35313,10.83043h-2.53414l-2.54922,-10.83043h2.08161l1.62909,8.34154l1.77993,-8.34154z" fill="#000000" fill-rule="nonzero" stroke="none" stroke-width="1"/></g></g></g></svg>