<svg xmlns="http://www.w3.org/2000/svg" xmlns:xlink="http://www.w3.org/1999/xlink" version="1.1" width="133.55331420898438" height="147.45777893066406" viewBox="1.4119899272918701 -1.5909270644187927 133.55331420898438 147.45777893066406">
  <!-- Exported by Scratch - http://scratch.mit.edu/ -->
  <text id="ID0.9270991082303226" fill="#E5E5E5" text-anchor="start" font-family="Scratch" font-size="22" transform="matrix(0.746504 0 0 0.746504 2.49301 97.5105)" stroke-width="1" alignment-baseline="text-before-edge" xml:space="preserve"><tspan x="0" style="white-space: pre" dy="0.89em">All rights belong to</tspan><tspan x="0" style="white-space: pre" dy="0.89em"> </tspan><tspan x="0" style="white-space: pre" dy="0.89em">RobTop Games</tspan></text>
  <text id="ID0.46249701315537095" fill="#FFFFFF" text-anchor="start" font-family="Scratch" font-size="22" transform="matrix(0.905995 0 0 0.905995 2.41199 -2.31798)" stroke-width="1" alignment-baseline="text-before-edge" xml:space="preserve"><tspan x="0" style="white-space: pre" dy="0.89em">Ported to Scratch</tspan><tspan x="0" style="white-space: pre" dy="0.89em"> </tspan><tspan x="0" style="white-space: pre" dy="0.89em">by Griffpatch</tspan></text>
  <path id="ID0.35943899489939213" fill="none" stroke="#FFFF00" stroke-width="2" stroke-linecap="round" d="M 25 66.2 C 25.266 73.926 25.514 81.675 25.8 89.4 C 25.872 91.331 25.8 87.8 25.8 87.8 "/>
  <path id="ID0.46628018002957106" fill="none" stroke="#FFFF00" stroke-width="2" stroke-linecap="round" d="M 52.2 70.2 C 52.2 70.2 52.2 95 52.2 95 "/>
  <path id="ID0.9498660378158092" fill="none" stroke="#FFFF00" stroke-width="2" stroke-linecap="round" d="M 10.6 90.2 C 10.6 90.2 11.569 92.39 12.2 93.4 C 12.906 94.53 13.826 95.516 14.6 96.6 C 15.158 97.382 15.585 98.262 16.2 99 C 16.924 99.868 17.801 100.601 18.6 101.4 C 19.666 102.466 20.656 103.619 21.8 104.6 C 22.529 105.225 23.341 105.77 24.2 106.2 C 24.953 106.577 25.801 106.734 26.6 107 C 28.198 107.533 29.786 108.116 31.4 108.6 C 32.452 108.916 33.508 109.279 34.6 109.4 C 35.924 109.547 37.268 109.4 38.6 109.4 C 42.33 109.4 46.099 109.863 49.8 109.4 C 52.56 109.055 55.142 107.818 57.8 107 C 58.605 106.752 59.447 106.577 60.2 106.2 C 61.059 105.77 61.741 105.03 62.6 104.6 C 63.353 104.223 64.278 104.233 65 103.8 C 65.646 103.412 65.973 102.618 66.6 102.2 C 67.591 101.539 68.766 101.191 69.8 100.6 C 70.634 100.123 71.45 99.6 72.2 99 C 72.788 98.529 73.8 97.4 73.8 97.4 "/>
</svg>