<svg xmlns="http://www.w3.org/2000/svg" xmlns:xlink="http://www.w3.org/1999/xlink" version="1.1" width="89.19999694824219" height="362" viewBox="0.7999999523162842 -1 89.19999694824219 362">
  <defs>
    <linearGradient id="grad_1" x2="1">
      <stop offset="0" stop-color="#ECFF6C" stop-opacity="0"/>
      <stop offset="1" stop-color="#ECFF6C" stop-opacity="1"/>
    </linearGradient>
  <linearGradient id="grad_1-.5625,0,0,1,-661,0" x2="89" x1="64" y1="0" y2="0" gradientUnits="userSpaceOnUse">
      <stop offset="0" stop-color="#ECFF6C" stop-opacity="0"/>
      <stop offset="1" stop-color="#ECFF6C" stop-opacity="1"/>
    </linearGradient></defs>
  <!-- Exported by Scratch - http://scratch.mit.edu/ -->
  <path id="ID0.8143790336325765" fill="url(#grad_1-.5625,0,0,1,-661,0)" stroke="none" d="M 64 0 L 89 0 L 89 360 L 64 360 L 64 0 Z " stroke-width="1.3117557413634597"/>
  <path id="ID0.5516532645560801" fill="none" stroke="#00CC44" stroke-width="2" d="M 54.6 48.8 C 62.766 48.8 70.166 52.206 75.525 57.71 C 80.883 63.213 84.2 70.813 84.2 79.2 C 84.2 87.587 80.883 95.187 75.525 100.69 C 70.166 106.194 62.766 109.6 54.6 109.6 C 46.434 109.6 39.034 106.194 33.675 100.69 C 28.317 95.187 25 87.587 25 79.2 C 25 70.813 28.317 63.213 33.675 57.71 C 39.034 52.206 46.434 48.8 54.6 48.8 Z "/>
  <path id="ID0.9571824125014246" fill="none" stroke="#00CC44" stroke-width="2" d="M 70.6 160 C 75.676 160 80.276 162.734 83.607 167.151 C 86.938 171.568 89 177.668 89 184.4 C 89 191.132 86.938 197.232 83.607 201.649 C 80.276 206.066 75.676 208.8 70.6 208.8 C 65.524 208.8 60.924 206.066 57.593 201.649 C 54.262 197.232 52.2 191.132 52.2 184.4 C 52.2 177.668 54.262 171.568 57.593 167.151 C 60.924 162.734 65.524 160 70.6 160 Z "/>
  <path id="ID0.803135993424803" fill="none" stroke="#00CC44" stroke-width="2" d="M 16.2 152.8 C 20.173 152.8 23.773 154.683 26.38 157.724 C 28.986 160.765 30.6 164.965 30.6 169.6 C 30.6 174.235 28.986 178.435 26.38 181.476 C 23.773 184.517 20.173 186.4 16.2 186.4 C 12.227 186.4 8.627 184.517 6.02 181.476 C 3.414 178.435 1.8 174.235 1.8 169.6 C 1.8 164.965 3.414 160.765 6.02 157.724 C 8.627 154.683 12.227 152.8 16.2 152.8 Z "/>
  <path id="ID0.7000241866335273" fill="none" stroke="#00CC44" stroke-width="2" d="M 60.2 232.8 C 68.146 232.8 75.346 236.475 80.559 242.413 C 85.773 248.351 89 256.551 89 265.6 C 89 274.649 85.773 282.849 80.559 288.787 C 75.346 294.725 68.146 298.4 60.2 298.4 C 52.254 298.4 45.054 294.725 39.841 288.787 C 34.627 282.849 31.4 274.649 31.4 265.6 C 31.4 256.551 34.627 248.351 39.841 242.413 C 45.054 236.475 52.254 232.8 60.2 232.8 Z "/>
  <path id="ID0.889633921906352" fill="none" stroke="#00CC44" stroke-width="2" d="M 28.2 320.8 C 32.614 320.8 36.614 322.817 39.511 326.075 C 42.407 329.334 44.2 333.834 44.2 338.8 C 44.2 343.766 42.407 348.266 39.511 351.525 C 36.614 354.783 32.614 356.8 28.2 356.8 C 23.786 356.8 19.786 354.783 16.889 351.525 C 13.993 348.266 12.2 343.766 12.2 338.8 C 12.2 333.834 13.993 329.334 16.889 326.075 C 19.786 322.817 23.786 320.8 28.2 320.8 Z "/>
</svg>