<svg version="1.1" xmlns="http://www.w3.org/2000/svg" xmlns:xlink="http://www.w3.org/1999/xlink" width="42.94132" height="35.36205" viewBox="0,0,42.94132,35.36205"><g transform="translate(-219.32248,-161.64073)"><g data-paper-data="{&quot;isPaintingLayer&quot;:true}" fill-rule="nonzero" stroke-linejoin="miter" stroke-miterlimit="10" stroke-dasharray="" stroke-dashoffset="0" style="mix-blend-mode: normal"><path d="M219.32248,197.00278v-25.01144h42.94132v25.01144z" fill="#352358" stroke="none" stroke-width="none" stroke-linecap="butt"/><g><path d="M233.25856,180.9779v-15.5607h15.67185v15.5607z" fill="#000000" stroke="none" stroke-width="0" stroke-linecap="butt"/><path d="M235.19356,166.44779l5.00165,0.33345" fill="none" stroke="#000000" stroke-width="0.5" stroke-linecap="round"/><path d="M233.74864,161.89073l7.00232,10.4479" fill="none" stroke="#ff0000" stroke-width="0.5" stroke-linecap="round"/><path d="M247.43816,163.28242l-7.00231,10.4479" data-paper-data="{&quot;index&quot;:null}" fill="none" stroke="#ff0000" stroke-width="0.5" stroke-linecap="round"/><path d="M237.21353,173.13561l1.59591,2.75657" fill="none" stroke="#ff0000" stroke-width="0.5" stroke-linecap="round"/><path d="M243.01683,174.44135l0.21762,2.17624" fill="none" stroke="#ff0000" stroke-width="0.5" stroke-linecap="round"/><path d="M239.17214,178.28604l1.01557,1.88608l1.81353,-1.88608" fill="none" stroke="#ff0000" stroke-width="0.5" stroke-linecap="round"/></g><path d="M227.15739,180.27827l-0.45201,6.32819" fill="none" stroke="#000000" stroke-width="0.5" stroke-linecap="round"/><path d="M230.7735,181.93565l0.15067,4.97215" fill="none" stroke="#000000" stroke-width="0.5" stroke-linecap="round"/><path d="M226.85604,177.71685l1.80806,3.46544l3.76678,-4.52014" fill="none" stroke="#000000" stroke-width="0.5" stroke-linecap="round"/><path d="M226.85604,189.31854l2.41074,3.46544l3.46544,-3.1641" fill="none" stroke="#000000" stroke-width="0.5" stroke-linecap="round"/></g></g></svg>